0
SECTION
2
HEADER
9
$INSUNITS
70
4
9
$ACADVER
1
AC1014
9
$HANDSEED
5
FFFF
0
ENDSEC
0
SECTION
2
TABLES
0
TABLE
2
VPORT
5
8
100
AcDbSymbolTable
0
ENDTAB
0
TABLE
2
LTYPE
5
5
100
AcDbSymbolTable
0
LTYPE
5
14
100
AcDbSymbolTableRecord
100
AcDbLinetypeTableRecord
2
BYBLOCK
70
0
0
LTYPE
5
15
100
AcDbSymbolTableRecord
100
AcDbLinetypeTableRecord
2
BYLAYER
70
0
0
ENDTAB
0
TABLE
2
LAYER
5
2
100
AcDbSymbolTable
70
2
0
LAYER
5
50
100
AcDbSymbolTableRecord
100
AcDbLayerTableRecord
2
0
70
0
6
CONTINUOUS
0
ENDTAB
0
TABLE
2
STYLE
5
3
100
AcDbSymbolTable
70
1
0
STYLE
5
11
100
AcDbSymbolTableRecord
100
AcDbTextStyleTableRecord
2
STANDARD
70
0
0
ENDTAB
0
TABLE
2
VIEW
5
6
100
AcDbSymbolTable
70
0
0
ENDTAB
0
TABLE
2
UCS
5
7
100
AcDbSymbolTable
70
0
0
ENDTAB
0
TABLE
2
APPID
5
9
100
AcDbSymbolTable
70
2
0
APPID
5
12
100
AcDbSymbolTableRecord
100
AcDbRegAppTableRecord
2
ACAD
70
0
0
ENDTAB
0
TABLE
2
DIMSTYLE
5
A
100
AcDbSymbolTable
70
1
0
ENDTAB
0
TABLE
2
BLOCK_RECORD
5
1
100
AcDbSymbolTable
70
1
0
BLOCK_RECORD
5
1F
100
AcDbSymbolTableRecord
100
AcDbBlockTableRecord
2
*MODEL_SPACE
0
BLOCK_RECORD
5
1B
100
AcDbSymbolTableRecord
100
AcDbBlockTableRecord
2
*PAPER_SPACE
0
ENDTAB
0
ENDSEC
0
SECTION
2
BLOCKS
0
BLOCK
5
20
100
AcDbEntity
100
AcDbBlockBegin
2
*MODEL_SPACE
0
ENDBLK
5
21
100
AcDbEntity
100
AcDbBlockEnd
0
BLOCK
5
1C
100
AcDbEntity
100
AcDbBlockBegin
2
*PAPER_SPACE
0
ENDBLK
5
1D
100
AcDbEntity
100
AcDbBlockEnd
0
ENDSEC
0
SECTION
2
ENTITIES
0
LWPOLYLINE
5
100
100
AcDbEntity
8
0
100
AcDbPolyline
90
32
70
1
43
0.0
10
276.09840500000007
20
-99.635053692976001
42
0.41421356237310197
10
274.59840500000001
20
-98.135053692975944
10
270.72340500000001
20
-98.135053692975987
42
-0.41421356237309148
10
266.34840500000007
20
-93.760053692976001
10
266.34840500000001
20
-1.3100536929759174
42
-0.41421356237309159
10
270.72340500000001
20
3.0649463070241012
10
274.59840500000001
20
3.0649463070240754
42
0.41421356237309209
10
276.09840500000013
20
4.5649463070240692
10
276.09840500000007
20
6.3149463070241119
42
-0.99999999999999989
10
281.59840500000007
20
6.3149463070240586
10
281.59840500000007
20
4.5649463070240737
42
0.41421356237308982
10
283.09840500000001
20
3.0649463070240834
10
331.7484050000001
20
3.064946307024087
42
0.41421356237307499
10
333.24840499999999
20
4.5649463070240692
10
333.24840499999999
20
6.3149463070240763
42
-0.99999999999999989
10
338.74840499999999
20
6.3149463070240053
10
338.74840500000005
20
4.5649463070240852
42
0.41421356237309537
10
340.24840500000005
20
3.0649463070241012
10
344.12340499999999
20
3.0649463070241167
42
-0.41421356237309848
10
348.49840499999999
20
-1.3100536929759343
10
348.49840499999993
20
-93.760053692976001
42
-0.41421356237309503
10
344.12340499999999
20
-98.13505369297593
10
340.24840500000005
20
-98.135053692975987
42
0.4142135623730569
10
338.74840499999999
20
-99.635053692976001
10
338.74840499999999
20
-101.38505369297631
42
-0.99999999999999989
10
333.24840499999999
20
-101.38505369297624
10
333.24840499999999
20
-99.635053692976001
42
0.41421356237309853
10
331.7484050000001
20
-98.13505369297593
10
283.09840500000001
20
-98.135053692975987
42
0.41421356237310542
10
281.59840500000001
20
-99.635053692976001
10
281.59840500000001
20
-101.38505369297631
42
-0.99999999999999989
10
276.09840500000013
20
-101.38505369297634
0
LWPOLYLINE
5
101
100
AcDbEntity
8
0
100
AcDbPolyline
90
8
70
1
43
0.0
10
290.89840500000014
20
-34.985053692975931
10
290.89840500000014
20
-21.985053692975924
42
-0.41421356237318868
10
291.39840500000008
20
-21.48505369297585
10
304.39840500000008
20
-21.485053692975953
42
-0.41421356237313406
10
304.89840499999991
20
-21.985053692975921
10
304.89840500000008
20
-34.985053692975931
42
-0.41421356237312623
10
304.39840500000008
20
-35.485053692975924
10
291.39840500000008
20
-35.485053692975896
42
-0.41421356237319651
0
LWPOLYLINE
5
102
100
AcDbEntity
8
0
100
AcDbPolyline
90
8
70
1
43
0.0
10
290.89840500000014
20
-15.935053692975886
42
0.41421356237317569
10
291.39840500000008
20
-16.435053692975888
10
304.39840500000008
20
-16.435053692975885
42
0.41421356237313145
10
304.89840500000008
20
-15.935053692975885
10
304.89840499999991
20
-2.9350536929759019
42
0.41421356237312362
10
304.39840500000008
20
-2.4350536929759592
10
291.39840500000008
20
-2.4350536929758695
42
0.41421356237314705
10
290.89840500000008
20
-2.9350536929758952
0
LWPOLYLINE
5
103
100
AcDbEntity
8
0
100
AcDbPolyline
90
8
70
1
43
0.0
10
291.39840500000008
20
-59.585053692975862
42
0.41421356237318346
10
290.89840500000014
20
-60.085053692975912
10
290.89840500000014
20
-73.085053692975904
42
0.41421356237317308
10
291.39840500000008
20
-73.585053692975904
10
304.39840500000008
20
-73.585053692975904
42
0.41421356237312623
10
304.89840500000008
20
-73.085053692975919
10
304.89840499999991
20
-60.085053692975919
42
0.41421356237319906
10
304.39840500000008
20
-59.585053692975912
0
LWPOLYLINE
5
104
100
AcDbEntity
8
0
100
AcDbPolyline
90
8
70
1
43
0.0
10
310.44840499999998
20
-40.53505369297585
10
323.44840499999998
20
-40.535053692975893
42
-0.414213562373069
10
323.94840499999987
20
-41.035053692975893
10
323.94840499999998
20
-54.035053692975872
42
-0.41421356237314705
10
323.44840499999998
20
-54.535053692975872
10
310.44840499999998
20
-54.535053692975985
42
-0.41421356237313667
10
309.94840500000009
20
-54.035053692975872
10
309.94840499999998
20
-41.035053692975893
42
-0.41421356237307944
0
LWPOLYLINE
5
105
100
AcDbEntity
8
0
100
AcDbPolyline
90
8
70
1
43
0.0
10
271.84840500000013
20
-73.085053692975904
10
271.84840500000001
20
-60.085053692975912
42
-0.41421356237314183
10
272.34840500000007
20
-59.585053692975862
10
285.34840500000001
20
-59.585053692975904
42
-0.41421356237316265
10
285.8484049999999
20
-60.085053692975919
10
285.84840500000001
20
-73.085053692975919
42
-0.41421356237312623
10
285.34840500000001
20
-73.585053692975904
10
272.34840500000007
20
-73.585053692975904
42
-0.41421356237317308
0
LWPOLYLINE
5
106
100
AcDbEntity
8
0
100
AcDbPolyline
90
8
70
1
43
0.0
10
323.94840499999987
20
-2.9350536929758952
10
323.94840499999998
20
-15.935053692975885
42
-0.41421356237314444
10
323.44840499999998
20
-16.435053692975885
10
310.44840499999998
20
-16.43505369297587
42
-0.41421356237312362
10
309.94840499999998
20
-15.935053692975886
10
309.94840499999998
20
-2.9350536929758952
42
-0.41421356237303164
10
310.44840499999998
20
-2.4350536929759374
10
323.44840499999998
20
-2.4350536929759699
42
-0.41421356237310969
0
LWPOLYLINE
5
107
100
AcDbEntity
8
0
100
AcDbPolyline
90
8
70
1
43
0.0
10
272.34840500000007
20
-21.48505369297585
42
0.41421356237312362
10
271.84840500000007
20
-21.985053692975921
10
271.84840500000013
20
-34.985053692975924
42
0.41421356237319906
10
272.34840500000007
20
-35.485053692975903
10
285.34840500000001
20
-35.485053692975825
42
0.414213562373069
10
285.84840500000001
20
-34.985053692975931
10
285.8484049999999
20
-21.985053692975921
42
0.41421356237311324
10
285.34840500000001
20
-21.485053692975917
0
LWPOLYLINE
5
108
100
AcDbEntity
8
0
100
AcDbPolyline
90
8
70
1
43
0.0
10
310.44840499999998
20
-21.485053692975775
42
0.41421356237316787
10
309.94840499999998
20
-21.985053692975921
10
309.94840500000009
20
-34.985053692975924
42
0.41421356237307161
10
310.44840499999998
20
-35.485053692975931
10
323.44840499999998
20
-35.485053692975825
42
0.41421356237316009
10
323.94840499999998
20
-34.985053692975931
10
323.94840499999987
20
-21.985053692975921
42
0.41421356237305862
10
323.44840499999998
20
-21.485053692975935
0
LWPOLYLINE
5
109
100
AcDbEntity
8
0
100
AcDbPolyline
90
8
70
1
43
0.0
10
304.39840500000008
20
-54.535053692975872
42
0.41421356237313145
10
304.89840500000008
20
-54.035053692975872
10
304.89840499999991
20
-41.035053692975893
42
0.41421356237319906
10
304.39840500000008
20
-40.535053692975886
10
291.39840500000008
20
-40.535053692975815
42
0.41421356237318868
10
290.89840500000008
20
-41.035053692975893
10
290.89840500000014
20
-54.035053692975872
42
0.41421356237318346
10
291.39840500000008
20
-54.535053692975957
0
LWPOLYLINE
5
110
100
AcDbEntity
8
0
100
AcDbPolyline
90
8
70
1
43
0.0
10
285.34840500000001
20
-54.53505369297595
10
272.34840500000007
20
-54.535053692975879
42
-0.41421356237315748
10
271.84840500000001
20
-54.035053692975872
10
271.84840500000001
20
-41.035053692975893
42
-0.41421356237316265
10
272.34840500000007
20
-40.535053692975886
10
285.34840500000001
20
-40.535053692975879
42
-0.41421356237316265
10
285.8484049999999
20
-41.035053692975893
10
285.84840500000001
20
-54.035053692975872
42
-0.41421356237310025
0
LWPOLYLINE
5
111
100
AcDbEntity
8
0
100
AcDbPolyline
90
8
70
1
43
0.0
10
310.44840499999998
20
-78.635053692975873
42
0.41421356237312101
10
309.94840499999998
20
-79.135053692975873
10
309.94840500000009
20
-92.135053692975859
42
0.41421356237313667
10
310.44840499999998
20
-92.635053692975973
10
323.44840499999998
20
-92.635053692975845
42
0.41421356237313667
10
323.94840499999998
20
-92.135053692975859
10
323.94840499999987
20
-79.135053692975873
42
0.414213562373069
10
323.44840499999998
20
-78.635053692976015
0
LWPOLYLINE
5
112
100
AcDbEntity
8
0
100
AcDbPolyline
90
8
70
1
43
0.0
10
309.94840500000009
20
-73.085053692975919
10
309.94840499999998
20
-60.085053692975912
42
-0.41421356237307944
10
310.44840499999998
20
-59.585053692975862
10
323.44840499999998
20
-59.585053692975897
42
-0.4142135623730846
10
323.94840499999987
20
-60.085053692975919
10
323.94840499999998
20
-73.085053692975919
42
-0.41421356237314183
10
323.44840499999998
20
-73.585053692975904
10
310.44840499999998
20
-73.585053692975904
42
-0.41421356237310025
0
LWPOLYLINE
5
113
100
AcDbEntity
8
0
100
AcDbPolyline
90
8
70
1
43
0.0
10
285.34840500000001
20
-16.435053692975885
42
0.41421356237313017
10
285.84840500000001
20
-15.935053692975886
10
285.8484049999999
20
-2.9350536929759015
42
0.41421356237310281
10
285.34840500000001
20
-2.4350536929759237
10
272.34840500000007
20
-2.4350536929759405
42
0.41421356237312268
10
271.84840500000001
20
-2.9350536929758952
10
271.84840500000001
20
-15.935053692975886
42
0.41421356237315876
10
272.34840500000007
20
-16.435053692975892
0
LWPOLYLINE
5
114
100
AcDbEntity
8
0
100
AcDbPolyline
90
8
70
1
43
0.0
10
329.49840499999999
20
-2.4350536929759414
10
342.49840499999999
20
-2.4350536929759699
42
-0.41421356237311324
10
342.99840499999988
20
-2.9350536929759015
10
342.9984050000001
20
-15.935053692975885
42
-0.41421356237302348
10
342.49840499999999
20
-16.435053692975885
10
329.49840499999999
20
-16.435053692975881
42
-0.41421356237319129
10
328.99840500000005
20
-15.935053692975886
10
328.99840500000005
20
-2.9350536929758952
42
-0.41421356237301438
0
LWPOLYLINE
5
115
100
AcDbEntity
8
0
100
AcDbPolyline
90
32
70
1
43
0.0
10
296.81140500000015
20
-93.13505369297593
10
296.81140500000015
20
-92.635053692975902
10
279.935405
20
-92.635053692975902
10
279.935405
20
-93.13505369297593
42
-0.41421356237306384
10
279.435405
20
-93.635053692975902
10
273.43540500000006
20
-93.635053692975958
42
-0.4142135623730846
10
272.93540500000006
20
-93.13505369297593
10
272.93540500000006
20
-92.635053692975902
10
272.34840500000007
20
-92.635053692975902
42
-0.4142135623731783
10
271.84840500000013
20
-92.135053692975902
10
271.84840500000001
20
-79.135053692975902
42
-0.41421356237314183
10
272.34840500000007
20
-78.635053692975859
10
272.935405
20
-78.635053692975859
10
272.935405
20
-78.135053692975774
42
-0.41421356237313145
10
273.43540500000006
20
-77.635053692975873
10
279.435405
20
-77.635053692975859
42
-0.41421356237310025
10
279.935405
20
-78.135053692975873
10
279.935405
20
-78.635053692975873
10
296.81140499999998
20
-78.635053692975873
10
296.81140499999998
20
-78.135053692975873
42
-0.41421356237314183
10
297.31140499999998
20
-77.635053692975873
10
303.31140500000004
20
-77.635053692975859
42
-0.4142135623730846
10
303.81140500000009
20
-78.135053692975774
10
303.81140500000009
20
-78.635053692975902
10
304.39840500000008
20
-78.635053692975902
42
-0.41421356237319906
10
304.89840499999991
20
-79.135053692975916
10
304.89840500000008
20
-92.135053692975916
42
-0.41421356237312623
10
304.39840500000008
20
-92.635053692975902
10
303.81140500000009
20
-92.635053692975902
10
303.81140500000009
20
-93.13505369297593
42
-0.41421356237304302
10
303.31140499999998
20
-93.635053692975788
10
297.31140499999998
20
-93.635053692975859
42
-0.4142135623730534
0
LWPOLYLINE
5
116
100
AcDbEntity
8
0
100
AcDbPolyline
90
32
70
1
43
0.0
10
326.99840500000005
20
-67.172053692975894
42
0.41421356237307944
10
327.49840499999999
20
-67.672053692975908
10
328.99840500000005
20
-67.672053692975908
10
328.99840500000005
20
-84.548053692975898
10
327.49840499999999
20
-84.548053692975898
42
0.4142135623730222
10
326.99840499999999
20
-85.04805369297587
10
326.99840500000005
20
-91.048053692975941
42
0.4142135623730534
10
327.49840499999999
20
-91.548053692975913
10
328.9984050000001
20
-91.548053692975927
10
328.9984050000001
20
-92.135053692975859
42
0.41421356237313667
10
329.49840499999999
20
-92.635053692975958
10
342.49840499999999
20
-92.635053692975845
42
0.41421356237313667
10
342.99840500000005
20
-92.135053692975859
10
342.99840500000005
20
-91.548053692975927
10
343.49840499999999
20
-91.548053692975927
42
0.4142135623730846
10
343.99840499999993
20
-91.048053692975941
10
343.99840499999993
20
-85.04805369297587
42
0.41421356237304302
10
343.49840499999999
20
-84.548053692975998
10
342.99840499999993
20
-84.548053692975998
10
342.99840499999993
20
-67.672053692975908
10
343.49840499999999
20
-67.672053692975908
42
0.41421356237326151
10
343.99840500000005
20
-67.172053692975894
10
343.99840499999993
20
-61.172053692975943
42
0.41421356237312101
10
343.49840499999999
20
-60.672053692975929
10
342.99840499999988
20
-60.672053692975958
10
342.99840499999988
20
-60.085053692975919
42
0.4142135623730846
10
342.49840499999999
20
-59.585053692975897
10
329.49840499999999
20
-59.585053692975862
42
0.41421356237305862
10
328.99840499999993
20
-60.085053692975912
10
328.99840499999993
20
-60.672053692975865
10
327.49840499999999
20
-60.672053692975858
42
0.41421356237321988
10
326.99840499999993
20
-61.172053692975943
0
LWPOLYLINE
5
117
100
AcDbEntity
8
0
100
AcDbPolyline
90
32
70
1
43
0.0
10
343.49840499999999
20
-29.572053692975906
10
342.99840499999993
20
-29.572053692975906
10
342.99840499999993
20
-46.448053692975904
10
343.49840499999999
20
-46.448053692975904
42
-0.41421356237301699
10
343.99840499999993
20
-46.94805369297589
10
343.99840500000005
20
-52.948053692975847
42
-0.41421356237328233
10
343.49840499999999
20
-53.448053692975932
10
342.99840500000005
20
-53.448053692975932
10
342.99840500000005
20
-54.035053692975872
42
-0.41421356237314705
10
342.49840499999999
20
-54.535053692975872
10
329.49840499999999
20
-54.535053692975985
42
-0.41421356237313667
10
328.9984050000001
20
-54.035053692975872
10
328.9984050000001
20
-53.448053692975819
10
327.49840499999999
20
-53.448053692975812
42
-0.41421356237307944
10
326.99840500000005
20
-52.948053692975932
10
326.99840499999999
20
-46.94805369297589
42
-0.41421356237321988
10
327.49840499999999
20
-46.448053692975819
10
328.99840500000005
20
-46.448053692975826
10
328.99840500000005
20
-29.572053692975899
10
327.49840499999999
20
-29.572053692975903
42
-0.41421356237305862
10
326.99840500000005
20
-29.072053692975924
10
326.99840499999999
20
-23.07205369297586
42
-0.41421356237321472
10
327.49840499999999
20
-22.572053692975803
10
328.99840499999993
20
-22.572053692975818
10
328.99840499999993
20
-21.985053692975924
42
-0.41421356237317047
10
329.49840499999999
20
-21.485053692975775
10
342.49840499999999
20
-21.485053692975939
42
-0.41421356237305862
10
342.99840499999988
20
-21.985053692975921
10
342.99840499999988
20
-22.57205369297596
10
343.49840499999999
20
-22.572053692975942
42
-0.41421356237306639
10
343.99840499999993
20
-23.072053692975864
10
343.99840499999993
20
-29.072053692975928
42
-0.41421356237307944
0
CIRCLE
5
118
100
AcDbEntity
8
0
100
AcDbCircle
10
278.84840500000007
20
-101.38505369297633
30
0
40
1.7500000000000071
210
0
220
0
230
1
0
CIRCLE
5
119
100
AcDbEntity
8
0
100
AcDbCircle
10
335.99840499999999
20
-101.38505369297627
30
0
40
1.7499999999999716
210
0
220
0
230
1
0
CIRCLE
5
120
100
AcDbEntity
8
0
100
AcDbCircle
10
278.84840500000007
20
6.3149463070240852
30
0
40
1.7500000000000071
210
0
220
0
230
1
0
CIRCLE
5
121
100
AcDbEntity
8
0
100
AcDbCircle
10
335.99840499999999
20
6.3149463070240408
30
0
40
1.7499999999999716
210
0
220
0
230
1
0
ENDSEC
0
SECTION
2
OBJECTS
0
DICTIONARY
5
C
100
AcDbDictionary
3
ACAD_GROUP
350
D
3
ACAD_MLINESTYLE
350
17
0
DICTIONARY
5
D
100
AcDbDictionary
0
DICTIONARY
5
1A
330
C
100
AcDbDictionary
0
DICTIONARY
5
17
100
AcDbDictionary
0
ENDSEC
0
EOF
